<svg width="15" height="13" viewBox="0 0 15 13" fill="none" xmlns="http://www.w3.org/2000/svg">
<path d="M13.6209 0.5H1.37905C0.89553 0.5 0.5 0.874279 0.5 1.33182C0.5 1.78937 0.89553 2.16364 1.37905 2.16364H13.6209C14.1045 2.16364 14.5 1.78937 14.5 1.33182C14.5 0.874279 14.1045 0.5 13.6209 0.5Z" fill="#3F53BE"/>
<path d="M13.6209 5.6786H1.37905C0.89553 5.6786 0.5 6.05288 0.5 6.51042C0.5 6.96797 0.89553 7.34225 1.37905 7.34225H13.6209C14.1045 7.34225 14.5 6.96797 14.5 6.51042C14.5 6.05303 14.1045 5.6786 13.6209 5.6786Z" fill="#3F53BE"/>
<path d="M1.37905 10.8364H13.6209C14.1045 10.8364 14.5 11.2108 14.5 11.6682C14.5 12.1257 14.1045 12.5 13.6209 12.5H1.37905C0.89553 12.5 0.5 12.1257 0.5 11.6682C0.5 11.2107 0.89553 10.8364 1.37905 10.8364Z" fill="#3F53BE"/>
</svg>
